<svg xmlns="http://www.w3.org/2000/svg" xmlns:xlink="http://www.w3.org/1999/xlink" width="500" zoomAndPan="magnify" viewBox="0 0 375 374.999991" height="500" preserveAspectRatio="xMidYMid meet" version="1.0"><defs><g/><clipPath id="de2892e1c5"><path d="M 4.753906 4.753906 L 370.003906 4.753906 L 370.003906 370.003906 L 4.753906 370.003906 Z M 4.753906 4.753906 " clip-rule="nonzero"/></clipPath></defs><path fill="#eee2d8" d="M 368.898438 187.378906 C 368.898438 190.347656 368.824219 193.316406 368.679688 196.285156 C 368.53125 199.253906 368.3125 202.214844 368.023438 205.171875 C 367.730469 208.125 367.367188 211.074219 366.933594 214.011719 C 366.496094 216.953125 365.988281 219.878906 365.410156 222.789062 C 364.828125 225.703125 364.179688 228.601562 363.457031 231.484375 C 362.734375 234.367188 361.941406 237.226562 361.082031 240.070312 C 360.21875 242.914062 359.285156 245.734375 358.285156 248.53125 C 357.285156 251.328125 356.214844 254.097656 355.078125 256.84375 C 353.941406 259.585938 352.738281 262.300781 351.46875 264.988281 C 350.199219 267.671875 348.863281 270.324219 347.464844 272.945312 C 346.0625 275.566406 344.597656 278.148438 343.070312 280.699219 C 341.542969 283.246094 339.957031 285.753906 338.304688 288.222656 C 336.65625 290.695312 334.945312 293.121094 333.175781 295.507812 C 331.40625 297.894531 329.578125 300.234375 327.695312 302.53125 C 325.808594 304.828125 323.871094 307.078125 321.875 309.277344 C 319.878906 311.480469 317.832031 313.628906 315.730469 315.730469 C 313.628906 317.832031 311.480469 319.878906 309.277344 321.875 C 307.078125 323.871094 304.828125 325.808594 302.53125 327.695312 C 300.234375 329.578125 297.894531 331.40625 295.507812 333.175781 C 293.121094 334.945312 290.695312 336.65625 288.222656 338.304688 C 285.753906 339.957031 283.246094 341.542969 280.699219 343.070312 C 278.148438 344.597656 275.566406 346.0625 272.945312 347.464844 C 270.324219 348.863281 267.671875 350.199219 264.988281 351.46875 C 262.300781 352.738281 259.585938 353.941406 256.84375 355.078125 C 254.097656 356.214844 251.328125 357.285156 248.53125 358.285156 C 245.734375 359.285156 242.914062 360.21875 240.070312 361.082031 C 237.226562 361.941406 234.367188 362.734375 231.484375 363.457031 C 228.601562 364.179688 225.703125 364.828125 222.789062 365.410156 C 219.878906 365.988281 216.953125 366.496094 214.011719 366.933594 C 211.074219 367.367188 208.125 367.730469 205.171875 368.023438 C 202.214844 368.3125 199.253906 368.53125 196.285156 368.679688 C 193.316406 368.824219 190.347656 368.898438 187.378906 368.898438 C 184.40625 368.898438 181.4375 368.824219 178.472656 368.679688 C 175.503906 368.53125 172.542969 368.3125 169.585938 368.023438 C 166.628906 367.730469 163.683594 367.367188 160.746094 366.933594 C 157.804688 366.496094 154.878906 365.988281 151.964844 365.410156 C 149.050781 364.828125 146.15625 364.179688 143.273438 363.457031 C 140.390625 362.734375 137.53125 361.941406 134.6875 361.082031 C 131.84375 360.21875 129.023438 359.285156 126.226562 358.285156 C 123.429688 357.285156 120.660156 356.214844 117.914062 355.078125 C 115.171875 353.941406 112.453125 352.738281 109.769531 351.46875 C 107.085938 350.199219 104.429688 348.863281 101.8125 347.464844 C 99.191406 346.0625 96.609375 344.597656 94.058594 343.070312 C 91.511719 341.542969 89.003906 339.957031 86.53125 338.304688 C 84.0625 336.65625 81.632812 334.945312 79.25 333.175781 C 76.863281 331.40625 74.519531 329.578125 72.222656 327.695312 C 69.929688 325.808594 67.679688 323.871094 65.476562 321.875 C 63.277344 319.878906 61.125 317.832031 59.027344 315.730469 C 56.925781 313.628906 54.878906 311.480469 52.882812 309.277344 C 50.886719 307.078125 48.949219 304.828125 47.0625 302.53125 C 45.179688 300.234375 43.351562 297.894531 41.582031 295.507812 C 39.8125 293.121094 38.101562 290.695312 36.453125 288.222656 C 34.800781 285.753906 33.210938 283.246094 31.683594 280.699219 C 30.15625 278.148438 28.695312 275.566406 27.292969 272.945312 C 25.894531 270.324219 24.558594 267.671875 23.289062 264.988281 C 22.019531 262.300781 20.8125 259.585938 19.675781 256.84375 C 18.539062 254.097656 17.472656 251.328125 16.472656 248.53125 C 15.46875 245.734375 14.539062 242.914062 13.675781 240.070312 C 12.8125 237.226562 12.023438 234.367188 11.300781 231.484375 C 10.578125 228.601562 9.925781 225.703125 9.347656 222.789062 C 8.769531 219.878906 8.261719 216.953125 7.824219 214.011719 C 7.390625 211.074219 7.027344 208.125 6.734375 205.171875 C 6.441406 202.214844 6.226562 199.253906 6.078125 196.285156 C 5.933594 193.316406 5.859375 190.347656 5.859375 187.378906 C 5.859375 184.40625 5.933594 181.4375 6.078125 178.472656 C 6.226562 175.503906 6.441406 172.542969 6.734375 169.585938 C 7.027344 166.628906 7.390625 163.683594 7.824219 160.746094 C 8.261719 157.804688 8.769531 154.878906 9.347656 151.964844 C 9.925781 149.050781 10.578125 146.15625 11.300781 143.273438 C 12.023438 140.390625 12.8125 137.53125 13.675781 134.6875 C 14.539062 131.84375 15.46875 129.023438 16.472656 126.226562 C 17.472656 123.429688 18.539062 120.660156 19.675781 117.914062 C 20.8125 115.171875 22.019531 112.453125 23.289062 109.769531 C 24.558594 107.085938 25.894531 104.429688 27.292969 101.8125 C 28.695312 99.191406 30.15625 96.609375 31.683594 94.058594 C 33.210938 91.511719 34.800781 89.003906 36.453125 86.53125 C 38.101562 84.0625 39.8125 81.632812 41.582031 79.25 C 43.351562 76.863281 45.179688 74.519531 47.0625 72.222656 C 48.949219 69.929688 50.886719 67.679688 52.882812 65.476562 C 54.878906 63.277344 56.925781 61.125 59.027344 59.027344 C 61.125 56.925781 63.277344 54.878906 65.476562 52.882812 C 67.679688 50.886719 69.929688 48.949219 72.222656 47.0625 C 74.519531 45.179688 76.863281 43.351562 79.25 41.582031 C 81.632812 39.8125 84.0625 38.101562 86.53125 36.453125 C 89.003906 34.800781 91.511719 33.210938 94.058594 31.683594 C 96.609375 30.15625 99.191406 28.695312 101.8125 27.292969 C 104.429688 25.894531 107.085938 24.558594 109.769531 23.289062 C 112.453125 22.019531 115.171875 20.8125 117.914062 19.675781 C 120.660156 18.539062 123.429688 17.472656 126.226562 16.472656 C 129.023438 15.46875 131.84375 14.539062 134.6875 13.675781 C 137.53125 12.8125 140.390625 12.023438 143.273438 11.300781 C 146.15625 10.578125 149.050781 9.925781 151.964844 9.347656 C 154.878906 8.769531 157.804688 8.261719 160.746094 7.824219 C 163.683594 7.390625 166.628906 7.027344 169.585938 6.734375 C 172.542969 6.441406 175.503906 6.226562 178.472656 6.078125 C 181.4375 5.933594 184.40625 5.859375 187.378906 5.859375 C 190.347656 5.859375 193.316406 5.933594 196.285156 6.078125 C 199.253906 6.226562 202.214844 6.441406 205.171875 6.734375 C 208.125 7.027344 211.074219 7.390625 214.011719 7.824219 C 216.953125 8.261719 219.878906 8.769531 222.789062 9.347656 C 225.703125 9.925781 228.601562 10.578125 231.484375 11.300781 C 234.367188 12.023438 237.226562 12.8125 240.070312 13.675781 C 242.914062 14.539062 245.734375 15.46875 248.53125 16.472656 C 251.328125 17.472656 254.097656 18.539062 256.84375 19.675781 C 259.585938 20.8125 262.300781 22.019531 264.988281 23.289062 C 267.671875 24.558594 270.324219 25.894531 272.945312 27.292969 C 275.566406 28.695312 278.148438 30.15625 280.699219 31.683594 C 283.246094 33.210938 285.753906 34.800781 288.222656 36.453125 C 290.695312 38.101562 293.121094 39.8125 295.507812 41.582031 C 297.894531 43.351562 300.234375 45.179688 302.53125 47.0625 C 304.828125 48.949219 307.078125 50.886719 309.277344 52.882812 C 311.480469 54.878906 313.628906 56.925781 315.730469 59.027344 C 317.832031 61.125 319.878906 63.277344 321.875 65.476562 C 323.871094 67.679688 325.808594 69.929688 327.695312 72.222656 C 329.578125 74.519531 331.40625 76.863281 333.175781 79.25 C 334.945312 81.632812 336.65625 84.0625 338.304688 86.53125 C 339.957031 89.003906 341.542969 91.511719 343.070312 94.058594 C 344.597656 96.609375 346.0625 99.191406 347.464844 101.8125 C 348.863281 104.429688 350.199219 107.085938 351.46875 109.769531 C 352.738281 112.453125 353.941406 115.171875 355.078125 117.914062 C 356.214844 120.660156 357.285156 123.429688 358.285156 126.226562 C 359.285156 129.023438 360.21875 131.84375 361.082031 134.6875 C 361.941406 137.53125 362.734375 140.390625 363.457031 143.273438 C 364.179688 146.15625 364.828125 149.050781 365.410156 151.964844 C 365.988281 154.878906 366.496094 157.804688 366.933594 160.746094 C 367.367188 163.683594 367.730469 166.628906 368.023438 169.585938 C 368.3125 172.542969 368.53125 175.503906 368.679688 178.472656 C 368.824219 181.4375 368.898438 184.40625 368.898438 187.378906 Z M 368.898438 187.378906 " fill-opacity="1" fill-rule="nonzero"/><g clip-path="url(#de2892e1c5)"><path stroke-linecap="butt" transform="matrix(0.110682, 0, 0, 0.110682, -6.314656, -6.31466)" fill="none" stroke-linejoin="miter" d="M 3390.016016 1750.003678 C 3390.016016 1776.826063 3389.345457 1803.648448 3388.03963 1830.470833 C 3386.698511 1857.293218 3384.722125 1884.045017 3382.110471 1910.761524 C 3379.463525 1937.442739 3376.181312 1964.088661 3372.263833 1990.628705 C 3368.31106 2017.204042 3363.72302 2043.638208 3358.499714 2069.931204 C 3353.241115 2096.259492 3347.382541 2122.44661 3340.853408 2148.492558 C 3334.324275 2174.538505 3327.159875 2200.372697 3319.3955 2226.065719 C 3311.595833 2251.75874 3303.160899 2277.240006 3294.12599 2302.509516 C 3285.091081 2327.779026 3275.420906 2352.801488 3265.150756 2377.612194 C 3254.880606 2402.387607 3244.010481 2426.915973 3232.540382 2451.197289 C 3221.070283 2475.443314 3209.00021 2499.406997 3196.365455 2523.08834 C 3183.695407 2546.769682 3170.460678 2570.098099 3156.661267 2593.144174 C 3142.861856 2616.154957 3128.533055 2638.812814 3113.60428 2661.117745 C 3098.710798 2683.457968 3083.252634 2705.37468 3067.265081 2726.938466 C 3051.277528 2748.502252 3034.760586 2769.642526 3017.749547 2790.394582 C 3000.703215 2811.146638 2983.19808 2831.475182 2965.163555 2851.344922 C 2947.12903 2871.249956 2928.635702 2890.660892 2909.648277 2909.648317 C 2890.660851 2928.635742 2871.249915 2947.129071 2851.344882 2965.163596 C 2831.475141 2983.19812 2811.146597 3000.703256 2790.394541 3017.749587 C 2769.642485 3034.760626 2748.502211 3051.277569 2726.938425 3067.265122 C 2705.374639 3083.252675 2683.457927 3098.710839 2661.117704 3113.604321 C 2638.812773 3128.533096 2616.154917 3142.861896 2593.144134 3156.661307 C 2570.098058 3170.460719 2546.769642 3183.695448 2523.088299 3196.365496 C 2499.406957 3209.000251 2475.443273 3221.070324 2451.197249 3232.540423 C 2426.915932 3244.010522 2402.387567 3254.880646 2377.612153 3265.150796 C 2352.801447 3275.420946 2327.778985 3285.091122 2302.509475 3294.126031 C 2277.239965 3303.160939 2251.758699 3311.595873 2226.065678 3319.395541 C 2200.372657 3327.159915 2174.538465 3334.324315 2148.492517 3340.853449 C 2122.44657 3347.382582 2096.259452 3353.241155 2069.931163 3358.499755 C 2043.638167 3363.723061 2017.204001 3368.311101 1990.628664 3372.263873 C 1964.08862 3376.181353 1937.442698 3379.463566 1910.761484 3382.110512 C 1884.044977 3384.722165 1857.293177 3386.698551 1830.470792 3388.039671 C 1803.648407 3389.345497 1776.826022 3390.016057 1750.003637 3390.016057 C 1723.145959 3390.016057 1696.323574 3389.345497 1669.536482 3388.039671 C 1642.714097 3386.698551 1615.962297 3384.722165 1589.24579 3382.110512 C 1562.529283 3379.463566 1535.918653 3376.181353 1509.378609 3372.263873 C 1482.803273 3368.311101 1456.369106 3363.723061 1430.040818 3358.499755 C 1403.71253 3353.241155 1377.560704 3347.382582 1351.514757 3340.853449 C 1325.468809 3334.324315 1299.634617 3327.159915 1273.941596 3319.395541 C 1248.248574 3311.595873 1222.767309 3303.160939 1197.497799 3294.126031 C 1172.228288 3285.091122 1147.205827 3275.420946 1122.395121 3265.150796 C 1097.619707 3254.880646 1073.056049 3244.010522 1048.810025 3232.540423 C 1024.564001 3221.070324 1000.565025 3209.000251 976.918975 3196.365496 C 953.237632 3183.695448 929.909216 3170.460719 906.86314 3156.661307 C 883.852357 3142.861896 861.1945 3128.533096 838.854277 3113.604321 C 816.549346 3098.710839 794.597342 3083.252675 773.068849 3067.265122 C 751.505063 3051.277569 730.329496 3034.760626 709.57744 3017.749587 C 688.860677 3000.703256 668.532132 2983.19812 648.627099 2965.163596 C 628.757359 2947.129071 609.31113 2928.635742 590.358997 2909.648317 C 571.371572 2890.660892 552.878243 2871.249956 534.843719 2851.344922 C 516.809194 2831.475182 499.304059 2811.146638 482.257727 2790.394582 C 465.246688 2769.642526 448.729746 2748.502252 432.742193 2726.938466 C 416.75464 2705.37468 401.296476 2683.457968 386.402993 2661.117745 C 371.474219 2638.812814 357.110126 2616.154957 343.310714 2593.144174 C 329.511303 2570.098099 316.311866 2546.769682 303.641819 2523.08834 C 291.007064 2499.406997 278.93699 2475.443314 267.466891 2451.197289 C 255.996793 2426.915973 245.091376 2402.387607 234.821225 2377.612194 C 224.551075 2352.801488 214.916192 2327.779026 205.881284 2302.509516 C 196.811083 2277.240006 188.411441 2251.75874 180.611774 2226.065719 C 172.812107 2200.372697 165.682999 2174.538505 159.153866 2148.492558 C 152.624733 2122.44661 146.730866 2096.259492 141.50756 2069.931204 C 136.284253 2043.638208 131.696214 2017.204042 127.743441 1990.628705 C 123.825961 1964.088661 120.543748 1937.442739 117.896802 1910.761524 C 115.249857 1884.045017 113.308763 1857.293218 111.967644 1830.470833 C 110.661817 1803.648448 109.991257 1776.826063 109.991257 1750.003678 C 109.991257 1723.146 110.661817 1696.323615 111.967644 1669.536523 C 113.308763 1642.714138 115.249857 1615.962338 117.896802 1589.245831 C 120.543748 1562.529323 123.825961 1535.918694 127.743441 1509.37865 C 131.696214 1482.803313 136.284253 1456.369147 141.50756 1430.040859 C 146.730866 1403.71257 152.624733 1377.560745 159.153866 1351.514797 C 165.682999 1325.46885 172.812107 1299.634658 180.611774 1273.941636 C 188.411441 1248.248615 196.811083 1222.767349 205.881284 1197.497839 C 214.916192 1172.228329 224.551075 1147.205867 234.821225 1122.395161 C 245.091376 1097.619748 255.996793 1073.05609 267.466891 1048.810066 C 278.93699 1024.564041 291.007064 1000.565065 303.641819 976.919015 C 316.311866 953.237673 329.511303 929.909256 343.310714 906.863181 C 357.110126 883.852398 371.474219 861.194541 386.402993 838.854318 C 401.296476 816.549387 416.75464 794.597382 432.742193 773.068889 C 448.729746 751.505103 465.246688 730.329536 482.257727 709.577481 C 499.304059 688.860717 516.809194 668.532173 534.843719 648.62714 C 552.878243 628.757399 571.371572 609.31117 590.358997 590.359038 C 609.31113 571.371613 628.757359 552.878284 648.627099 534.843759 C 668.532132 516.809235 688.860677 499.304099 709.57744 482.257768 C 730.329496 465.246729 751.505063 448.729786 773.068849 432.742233 C 794.597342 416.75468 816.549346 401.296516 838.854277 386.403034 C 861.1945 371.474259 883.852357 357.110166 906.86314 343.310755 C 929.909216 329.511344 953.237632 316.311907 976.918975 303.641859 C 1000.565025 291.007104 1024.564001 278.937031 1048.810025 267.466932 C 1073.056049 255.996833 1097.619707 245.091416 1122.395121 234.821266 C 1147.205827 224.551116 1172.228288 214.916233 1197.497799 205.881324 C 1222.767309 196.811123 1248.248574 188.411482 1273.941596 180.611814 C 1299.634617 172.812147 1325.468809 165.68304 1351.514757 159.153906 C 1377.560704 152.624773 1403.71253 146.730907 1430.040818 141.5076 C 1456.369106 136.284294 1482.803273 131.696254 1509.378609 127.743482 C 1535.918653 123.826002 1562.529283 120.543789 1589.24579 117.896843 C 1615.962297 115.249897 1642.714097 113.308804 1669.536482 111.967684 C 1696.323574 110.661858 1723.145959 109.991298 1750.003637 109.991298 C 1776.826022 109.991298 1803.648407 110.661858 1830.470792 111.967684 C 1857.293177 113.308804 1884.044977 115.249897 1910.761484 117.896843 C 1937.442698 120.543789 1964.08862 123.826002 1990.628664 127.743482 C 2017.204001 131.696254 2043.638167 136.284294 2069.931163 141.5076 C 2096.259452 146.730907 2122.44657 152.624773 2148.492517 159.153906 C 2174.538465 165.68304 2200.372657 172.812147 2226.065678 180.611814 C 2251.758699 188.411482 2277.239965 196.811123 2302.509475 205.881324 C 2327.778985 214.916233 2352.801447 224.551116 2377.612153 234.821266 C 2402.387567 245.091416 2426.915932 255.996833 2451.197249 267.466932 C 2475.443273 278.937031 2499.406957 291.007104 2523.088299 303.641859 C 2546.769642 316.311907 2570.098058 329.511344 2593.144134 343.310755 C 2616.154917 357.110166 2638.812773 371.474259 2661.117704 386.403034 C 2683.457927 401.296516 2705.374639 416.75468 2726.938425 432.742233 C 2748.502211 448.729786 2769.642485 465.246729 2790.394541 482.257768 C 2811.146597 499.304099 2831.475141 516.809235 2851.344882 534.843759 C 2871.249915 552.878284 2890.660851 571.371613 2909.648277 590.359038 C 2928.635702 609.31117 2947.12903 628.757399 2965.163555 648.62714 C 2983.19808 668.532173 3000.703215 688.860717 3017.749547 709.577481 C 3034.760586 730.329536 3051.277528 751.505103 3067.265081 773.068889 C 3083.252634 794.597382 3098.710798 816.549387 3113.60428 838.854318 C 3128.533055 861.194541 3142.861856 883.852398 3156.661267 906.863181 C 3170.460678 929.909256 3183.695407 953.237673 3196.365455 976.919015 C 3209.00021 1000.565065 3221.070283 1024.564041 3232.540382 1048.810066 C 3244.010481 1073.05609 3254.880606 1097.619748 3265.150756 1122.395161 C 3275.420906 1147.205867 3285.091081 1172.228329 3294.12599 1197.497839 C 3303.160899 1222.767349 3311.595833 1248.248615 3319.3955 1273.941636 C 3327.159875 1299.634658 3334.324275 1325.46885 3340.853408 1351.514797 C 3347.382541 1377.560745 3353.241115 1403.71257 3358.499714 1430.040859 C 3363.72302 1456.369147 3368.31106 1482.803313 3372.263833 1509.37865 C 3376.181312 1535.918694 3379.463525 1562.529323 3382.110471 1589.245831 C 3384.722125 1615.962338 3386.698511 1642.714138 3388.03963 1669.536523 C 3389.345457 1696.323615 3390.016016 1723.146 3390.016016 1750.003678 Z M 3390.016016 1750.003678 " stroke="#55320f" stroke-width="20" stroke-opacity="1" stroke-miterlimit="4"/><path stroke-linecap="butt" transform="matrix(0.110682, 0, 0, 0.110682, -6.314656, -6.31466)" fill="none" stroke-linejoin="miter" d="M 3299.984563 1750.003678 C 3299.984563 1775.379065 3299.384589 1800.719161 3298.149348 1826.059256 C 3296.878814 1851.399351 3295.008305 1876.668861 3292.537822 1901.938371 C 3290.06734 1927.172589 3286.96159 1952.336221 3283.220573 1977.429268 C 3279.514849 2002.522315 3275.173857 2027.509484 3270.232892 2052.390776 C 3265.256633 2077.272067 3259.715693 2102.012188 3253.539486 2126.611138 C 3247.398572 2151.210089 3240.62239 2175.667869 3233.246235 2199.949186 C 3225.905371 2224.230503 3217.929241 2248.300064 3209.388429 2272.193162 C 3200.847617 2296.050968 3191.70683 2319.73231 3182.001362 2343.166605 C 3172.295894 2366.600899 3162.025744 2389.788145 3151.190912 2412.69305 C 3140.320788 2435.633248 3128.921274 2458.291104 3116.992371 2480.66662 C 3105.028176 2503.042136 3092.534591 2525.100019 3079.476325 2546.87556 C 3066.453351 2568.615809 3052.865695 2590.038424 3038.783943 2611.143406 C 3024.702191 2632.213096 3010.09105 2652.965151 2994.985812 2673.328988 C 2979.845282 2693.692825 2964.245947 2713.703736 2948.152516 2733.326429 C 2932.059085 2752.913828 2915.50685 2772.113009 2898.460519 2790.923971 C 2881.44948 2809.699641 2863.944344 2828.087091 2846.015697 2846.015738 C 2828.087051 2863.944385 2809.6996 2881.44952 2790.92393 2898.460559 C 2772.112968 2915.506891 2752.913787 2932.059126 2733.326388 2948.152557 C 2713.703696 2964.245988 2693.692785 2979.845322 2673.328948 2994.985853 C 2652.965111 3010.091091 2632.213055 3024.666939 2611.143366 3038.783984 C 2590.038384 3052.865736 2568.615768 3066.453392 2546.87552 3079.476365 C 2525.099978 3092.534632 2503.042096 3105.028216 2480.66658 3116.992412 C 2458.291064 3128.921315 2435.633207 3140.320828 2412.693009 3151.190953 C 2389.788104 3162.025784 2366.600858 3172.295935 2343.166564 3182.001403 C 2319.73227 3191.706871 2296.050927 3200.847658 2272.193122 3209.38847 C 2248.300023 3217.929282 2224.230462 3225.905412 2199.949145 3233.246275 C 2175.667828 3240.622431 2151.210048 3247.398613 2126.611098 3253.539527 C 2102.012147 3259.715734 2077.272026 3265.256674 2052.390735 3270.232932 C 2027.509444 3275.173898 2002.522275 3279.514889 1977.429228 3283.220614 C 1952.336181 3286.96163 1927.172548 3290.06738 1901.938331 3292.537863 C 1876.668821 3295.008346 1851.399311 3296.878854 1826.059215 3298.149388 C 1800.71912 3299.38463 1775.379025 3299.984604 1750.003637 3299.984604 C 1724.628249 3299.984604 1699.288154 3299.38463 1673.948058 3298.149388 C 1648.607963 3296.878854 1623.30316 3295.008346 1598.068943 3292.537863 C 1572.834725 3290.06738 1547.671093 3286.96163 1522.578046 3283.220614 C 1497.484999 3279.514889 1472.49783 3275.173898 1447.616539 3270.232932 C 1422.735247 3265.256674 1397.995126 3259.715734 1373.396176 3253.539527 C 1348.761933 3247.398613 1324.339446 3240.622431 1300.058129 3233.246275 C 1275.776812 3225.905412 1251.70725 3217.929282 1227.814152 3209.38847 C 1203.921054 3200.847658 1180.275004 3191.706871 1156.84071 3182.001403 C 1133.406415 3172.295935 1110.219169 3162.025784 1087.278972 3151.190953 C 1064.374067 3140.320828 1041.71621 3128.921315 1019.340694 3116.992412 C 996.965178 3105.028216 974.907296 3092.534632 953.131754 3079.476365 C 931.391505 3066.453392 909.96889 3052.865736 888.863908 3038.783984 C 867.758926 3024.702232 847.042163 3010.091091 826.678326 2994.985853 C 806.279196 2979.845322 786.303578 2964.245988 766.680886 2948.152557 C 747.093486 2932.059126 727.894305 2915.506891 709.083343 2898.460559 C 690.272381 2881.44952 671.920223 2863.944385 653.991576 2846.015738 C 636.062929 2828.087091 618.557794 2809.699641 601.511462 2790.923971 C 584.500424 2772.113009 567.912896 2752.913828 551.819465 2733.326429 C 535.726034 2713.703736 520.1267 2693.692825 505.021462 2673.328988 C 489.916224 2652.965151 475.305083 2632.213096 461.22333 2611.143406 C 447.141578 2590.038424 433.553923 2568.615809 420.530949 2546.87556 C 407.472683 2525.100019 394.979098 2503.042136 383.014903 2480.66662 C 371.050707 2458.291104 359.651194 2435.633248 348.816362 2412.69305 C 337.98153 2389.788145 327.71138 2366.600899 317.970619 2343.166605 C 308.265151 2319.73231 299.159657 2296.050968 290.618845 2272.193162 C 282.078033 2248.300064 274.101902 2224.230503 266.725747 2199.949186 C 259.384883 2175.667869 252.608702 2151.210089 246.467787 2126.611138 C 240.29158 2102.012188 234.715348 2077.272067 229.774382 2052.390776 C 224.833416 2027.509484 220.492425 2002.522315 216.786701 1977.429268 C 213.045684 1952.336221 209.939934 1927.172589 207.469451 1901.938371 C 204.963676 1876.668861 203.12846 1851.399351 201.857926 1826.059256 C 200.622685 1800.719161 199.987418 1775.379065 199.987418 1750.003678 C 199.987418 1724.62829 200.622685 1699.288194 201.857926 1673.948099 C 203.12846 1648.608004 204.963676 1623.303201 207.469451 1598.068984 C 209.939934 1572.834766 213.045684 1547.671134 216.786701 1522.578087 C 220.492425 1497.48504 224.833416 1472.497871 229.774382 1447.616579 C 234.715348 1422.735288 240.29158 1397.995167 246.467787 1373.396217 C 252.608702 1348.761974 259.384883 1324.339486 266.725747 1300.058169 C 274.101902 1275.776852 282.078033 1251.707291 290.618845 1227.814193 C 299.159657 1203.921095 308.265151 1180.275045 317.970619 1156.84075 C 327.71138 1133.406456 337.98153 1110.21921 348.816362 1087.279012 C 359.651194 1064.374107 371.050707 1041.716251 383.014903 1019.340735 C 394.979098 996.965219 407.472683 974.907336 420.530949 953.131795 C 433.553923 931.391546 447.141578 909.968931 461.22333 888.863949 C 475.305083 867.758967 489.916224 847.042204 505.021462 826.678367 C 520.1267 806.279237 535.726034 786.303619 551.819465 766.680927 C 567.912896 747.093527 584.500424 727.894346 601.511462 709.083384 C 618.557794 690.272422 636.062929 671.920264 653.991576 653.991617 C 671.920223 636.06297 690.272381 618.557835 709.083343 601.511503 C 727.894305 584.500464 747.093486 567.912937 766.680886 551.819506 C 786.303578 535.726075 806.279196 520.12674 826.678326 505.021502 C 847.042163 489.916265 867.758926 475.305123 888.863908 461.223371 C 909.96889 447.141619 931.391505 433.553963 953.131754 420.53099 C 974.907296 407.472723 996.965178 394.979139 1019.340694 383.014943 C 1041.71621 371.050748 1064.374067 359.651234 1087.278972 348.816402 C 1110.219169 337.981571 1133.406415 327.711421 1156.84071 317.97066 C 1180.275004 308.265191 1203.921054 299.159698 1227.814152 290.618885 C 1251.70725 282.078073 1275.776812 274.101943 1300.058129 266.725787 C 1324.339446 259.384924 1348.761933 252.608743 1373.396176 246.467828 C 1397.995126 240.291621 1422.735247 234.715388 1447.616539 229.774423 C 1472.49783 224.833457 1497.484999 220.492466 1522.578046 216.786742 C 1547.671093 213.045725 1572.834725 209.939975 1598.068943 207.469492 C 1623.30316 204.963717 1648.607963 203.128501 1673.948058 201.857967 C 1699.288154 200.622725 1724.628249 199.987458 1750.003637 199.987458 C 1775.379025 199.987458 1800.71912 200.622725 1826.059215 201.857967 C 1851.399311 203.128501 1876.668821 204.963717 1901.938331 207.469492 C 1927.172548 209.939975 1952.336181 213.045725 1977.429228 216.786742 C 2002.522275 220.492466 2027.509444 224.833457 2052.390735 229.774423 C 2077.272026 234.715388 2102.012147 240.291621 2126.611098 246.467828 C 2151.210048 252.608743 2175.667828 259.384924 2199.949145 266.725787 C 2224.230462 274.101943 2248.300023 282.078073 2272.193122 290.618885 C 2296.050927 299.159698 2319.73227 308.265191 2343.166564 317.97066 C 2366.600858 327.711421 2389.788104 337.981571 2412.693009 348.816402 C 2435.633207 359.651234 2458.291064 371.050748 2480.66658 383.014943 C 2503.042096 394.979139 2525.099978 407.472723 2546.87552 420.53099 C 2568.615768 433.553963 2590.038384 447.141619 2611.143366 461.223371 C 2632.213055 475.305123 2652.965111 489.916265 2673.328948 505.021502 C 2693.692785 520.12674 2713.703696 535.726075 2733.326388 551.819506 C 2752.913787 567.912937 2772.112968 584.500464 2790.92393 601.511503 C 2809.6996 618.557835 2828.087051 636.06297 2846.015697 653.991617 C 2863.944344 671.920264 2881.44948 690.272422 2898.460519 709.083384 C 2915.50685 727.894346 2932.059085 747.093527 2948.152516 766.680927 C 2964.245947 786.303619 2979.845282 806.279237 2994.985812 826.678367 C 3010.09105 847.042204 3024.666899 867.758967 3038.783943 888.863949 C 3052.865695 909.968931 3066.453351 931.391546 3079.476325 953.131795 C 3092.534591 974.907336 3105.028176 996.965219 3116.992371 1019.340735 C 3128.921274 1041.716251 3140.320788 1064.374107 3151.190912 1087.279012 C 3162.025744 1110.21921 3172.295894 1133.406456 3182.001362 1156.84075 C 3191.70683 1180.275045 3200.847617 1203.921095 3209.388429 1227.814193 C 3217.929241 1251.707291 3225.905371 1275.776852 3233.246235 1300.058169 C 3240.62239 1324.339486 3247.398572 1348.761974 3253.539486 1373.396217 C 3259.715693 1397.995167 3265.256633 1422.735288 3270.232892 1447.616579 C 3275.173857 1472.497871 3279.514849 1497.48504 3283.220573 1522.578087 C 3286.96159 1547.671134 3290.06734 1572.834766 3292.537822 1598.068984 C 3295.008305 1623.303201 3296.878814 1648.608004 3298.149348 1673.948099 C 3299.384589 1699.288194 3299.984563 1724.62829 3299.984563 1750.003678 Z M 3299.984563 1750.003678 " stroke="#55320f" stroke-width="20" stroke-opacity="1" stroke-miterlimit="4"/></g><path fill="#55320f" d="M 297.726562 297.949219 C 297.726562 298.382812 297.683594 298.816406 297.59375 299.246094 C 297.507812 299.679688 297.375 300.113281 297.195312 300.542969 C 297.019531 300.972656 296.796875 301.402344 296.535156 301.832031 C 296.269531 302.257812 295.960938 302.6875 295.605469 303.109375 C 295.253906 303.535156 294.859375 303.957031 294.417969 304.378906 C 293.980469 304.796875 293.5 305.214844 292.972656 305.628906 C 292.449219 306.042969 291.882812 306.453125 291.273438 306.859375 C 290.664062 307.269531 290.015625 307.671875 289.324219 308.074219 C 288.632812 308.472656 287.902344 308.867188 287.128906 309.257812 C 286.355469 309.652344 285.542969 310.039062 284.691406 310.417969 C 283.839844 310.800781 282.949219 311.179688 282.019531 311.550781 C 281.09375 311.921875 280.125 312.285156 279.121094 312.644531 C 278.117188 313.007812 277.078125 313.359375 276 313.707031 C 274.925781 314.054688 273.8125 314.398438 272.667969 314.730469 C 271.519531 315.066406 270.339844 315.394531 269.128906 315.714844 C 267.914062 316.035156 266.667969 316.347656 265.390625 316.65625 C 264.113281 316.960938 262.804688 317.257812 261.464844 317.550781 C 260.128906 317.839844 258.761719 318.125 257.363281 318.398438 C 255.964844 318.671875 254.542969 318.9375 253.089844 319.195312 C 251.640625 319.453125 250.164062 319.703125 248.660156 319.945312 C 247.160156 320.183594 245.632812 320.417969 244.082031 320.640625 C 242.53125 320.863281 240.960938 321.074219 239.367188 321.277344 C 237.773438 321.484375 236.160156 321.675781 234.527344 321.863281 C 232.894531 322.046875 231.242188 322.222656 229.574219 322.390625 C 227.902344 322.554688 226.21875 322.710938 224.515625 322.855469 C 222.816406 323.003906 221.101562 323.136719 219.371094 323.261719 C 217.644531 323.390625 215.902344 323.503906 214.148438 323.609375 C 212.398438 323.714844 210.632812 323.808594 208.863281 323.894531 C 207.089844 323.980469 205.308594 324.050781 203.523438 324.117188 C 201.734375 324.179688 199.941406 324.234375 198.144531 324.273438 C 196.347656 324.316406 194.546875 324.347656 192.742188 324.371094 C 190.9375 324.390625 189.128906 324.402344 187.324219 324.402344 C 185.515625 324.402344 183.710938 324.390625 181.90625 324.371094 C 180.101562 324.347656 178.300781 324.316406 176.5 324.273438 C 174.703125 324.234375 172.910156 324.179688 171.125 324.117188 C 169.335938 324.050781 167.554688 323.980469 165.785156 323.894531 C 164.011719 323.808594 162.25 323.714844 160.496094 323.609375 C 158.746094 323.503906 157.003906 323.390625 155.273438 323.261719 C 153.546875 323.136719 151.828125 323.003906 150.128906 322.855469 C 148.425781 322.710938 146.742188 322.554688 145.074219 322.390625 C 143.402344 322.222656 141.753906 322.046875 140.117188 321.863281 C 138.484375 321.675781 136.871094 321.484375 135.277344 321.277344 C 133.683594 321.074219 132.113281 320.863281 130.5625 320.640625 C 129.015625 320.417969 127.488281 320.183594 125.984375 319.945312 C 124.484375 319.703125 123.007812 319.453125 121.554688 319.195312 C 120.105469 318.9375 118.679688 318.671875 117.28125 318.398438 C 115.886719 318.125 114.519531 317.839844 113.179688 317.550781 C 111.839844 317.257812 110.53125 316.960938 109.253906 316.65625 C 107.976562 316.347656 106.730469 316.035156 105.519531 315.714844 C 104.304688 315.394531 103.125 315.066406 101.980469 314.730469 C 100.832031 314.398438 99.722656 314.054688 98.644531 313.707031 C 97.570312 313.359375 96.527344 313.007812 95.523438 312.644531 C 94.519531 312.285156 93.554688 311.921875 92.625 311.550781 C 91.695312 311.179688 90.804688 310.800781 89.953125 310.417969 C 89.101562 310.039062 88.289062 309.652344 87.519531 309.257812 C 86.746094 308.867188 86.011719 308.472656 85.320312 308.074219 C 84.628906 307.671875 83.980469 307.269531 83.371094 306.859375 C 82.761719 306.453125 82.195312 306.042969 81.671875 305.628906 C 81.148438 305.214844 80.664062 304.796875 80.226562 304.378906 C 79.789062 303.957031 79.390625 303.535156 79.039062 303.109375 C 78.6875 302.6875 78.378906 302.257812 78.113281 301.832031 C 77.847656 301.402344 77.625 300.972656 77.449219 300.542969 C 77.273438 300.113281 77.140625 299.679688 77.050781 299.246094 C 76.960938 298.816406 76.917969 298.382812 76.917969 297.949219 C 76.917969 297.515625 76.960938 297.085938 77.050781 296.652344 C 77.140625 296.21875 77.273438 295.789062 77.449219 295.355469 C 77.625 294.925781 77.847656 294.496094 78.113281 294.066406 C 78.378906 293.640625 78.6875 293.214844 79.039062 292.789062 C 79.390625 292.363281 79.789062 291.941406 80.226562 291.523438 C 80.664062 291.101562 81.148438 290.683594 81.671875 290.269531 C 82.195312 289.855469 82.761719 289.445312 83.371094 289.039062 C 83.980469 288.628906 84.628906 288.226562 85.320312 287.828125 C 86.011719 287.425781 86.746094 287.03125 87.519531 286.640625 C 88.289062 286.25 89.101562 285.863281 89.953125 285.480469 C 90.804688 285.097656 91.695312 284.722656 92.625 284.351562 C 93.554688 283.980469 94.519531 283.613281 95.523438 283.253906 C 96.527344 282.894531 97.570312 282.539062 98.644531 282.191406 C 99.722656 281.84375 100.832031 281.503906 101.980469 281.167969 C 103.125 280.832031 104.304688 280.503906 105.519531 280.183594 C 106.730469 279.863281 107.976562 279.550781 109.253906 279.246094 C 110.53125 278.9375 111.839844 278.640625 113.179688 278.347656 C 114.519531 278.058594 115.886719 277.777344 117.28125 277.5 C 118.679688 277.226562 120.105469 276.960938 121.554688 276.703125 C 123.007812 276.445312 124.484375 276.195312 125.984375 275.953125 C 127.488281 275.714844 129.015625 275.484375 130.5625 275.261719 C 132.113281 275.039062 133.683594 274.824219 135.277344 274.621094 C 136.871094 274.417969 138.484375 274.222656 140.117188 274.035156 C 141.753906 273.851562 143.402344 273.675781 145.074219 273.511719 C 146.742188 273.34375 148.425781 273.1875 150.128906 273.042969 C 151.828125 272.898438 153.546875 272.761719 155.273438 272.636719 C 157.003906 272.511719 158.746094 272.394531 160.496094 272.289062 C 162.25 272.183594 164.011719 272.089844 165.785156 272.003906 C 167.554688 271.921875 169.335938 271.847656 171.125 271.78125 C 172.910156 271.71875 174.703125 271.667969 176.5 271.625 C 178.300781 271.582031 180.101562 271.550781 181.90625 271.527344 C 183.710938 271.507812 185.515625 271.496094 187.324219 271.496094 C 189.128906 271.496094 190.9375 271.507812 192.742188 271.527344 C 194.546875 271.550781 196.347656 271.582031 198.144531 271.625 C 199.941406 271.667969 201.734375 271.71875 203.523438 271.78125 C 205.308594 271.847656 207.089844 271.921875 208.863281 272.003906 C 210.632812 272.089844 212.398438 272.183594 214.148438 272.289062 C 215.902344 272.394531 217.644531 272.511719 219.371094 272.636719 C 221.101562 272.761719 222.816406 272.898438 224.515625 273.042969 C 226.21875 273.1875 227.902344 273.34375 229.574219 273.511719 C 231.242188 273.675781 232.894531 273.851562 234.527344 274.035156 C 236.160156 274.222656 237.773438 274.417969 239.367188 274.621094 C 240.960938 274.824219 242.53125 275.039062 244.082031 275.261719 C 245.632812 275.484375 247.160156 275.714844 248.660156 275.953125 C 250.164062 276.195312 251.640625 276.445312 253.089844 276.703125 C 254.542969 276.960938 255.964844 277.226562 257.363281 277.5 C 258.761719 277.777344 260.128906 278.058594 261.464844 278.347656 C 262.804688 278.640625 264.113281 278.9375 265.390625 279.246094 C 266.667969 279.550781 267.914062 279.863281 269.128906 280.183594 C 270.339844 280.503906 271.519531 280.832031 272.667969 281.167969 C 273.8125 281.503906 274.925781 281.84375 276 282.191406 C 277.078125 282.539062 278.117188 282.894531 279.121094 283.253906 C 280.125 283.613281 281.09375 283.980469 282.019531 284.351562 C 282.949219 284.722656 283.839844 285.097656 284.691406 285.480469 C 285.542969 285.863281 286.355469 286.25 287.128906 286.640625 C 287.902344 287.03125 288.632812 287.425781 289.324219 287.828125 C 290.015625 288.226562 290.664062 288.628906 291.273438 289.039062 C 291.882812 289.445312 292.449219 289.855469 292.972656 290.269531 C 293.5 290.683594 293.980469 291.101562 294.417969 291.523438 C 294.859375 291.941406 295.253906 292.363281 295.605469 292.789062 C 295.960938 293.214844 296.269531 293.640625 296.535156 294.066406 C 296.796875 294.496094 297.019531 294.925781 297.195312 295.355469 C 297.375 295.789062 297.507812 296.21875 297.59375 296.652344 C 297.683594 297.085938 297.726562 297.515625 297.726562 297.949219 Z M 297.726562 297.949219 " fill-opacity="0.2" fill-rule="nonzero"/><path fill="#e09c55" d="M 260.03125 123.585938 L 114.328125 121.945312 L 129.878906 269.871094 C 129.878906 269.871094 165.097656 275.183594 184.460938 275.65625 C 208.753906 276.25 243.074219 270.730469 243.074219 270.730469 Z M 260.03125 123.585938 " fill-opacity="1" fill-rule="nonzero"/><path stroke-linecap="butt" transform="matrix(0.110682, 0, 0, 0.110682, -6.314656, -6.31466)" fill-opacity="1" fill="#efb987" fill-rule="nonzero" stroke-linejoin="miter" d="M 1743.403918 1095.960995 C 1511.884385 1095.960995 1077.608796 1118.901193 1089.290651 1155.287875 C 1112.866115 1228.661215 1484.567903 1251.177902 1743.403918 1256.295331 C 1996.451945 1261.306881 2427.727662 1233.355133 2408.281433 1155.287875 C 2399.246524 1118.901193 1999.275354 1095.960995 1743.403918 1095.960995 Z M 1743.403918 1095.960995 " stroke="#d88d43" stroke-width="10" stroke-opacity="1" stroke-miterlimit="4"/><path stroke-linecap="butt" transform="matrix(0.110682, 0, 0, 0.110682, -6.314656, -6.31466)" fill="none" stroke-linejoin="miter" d="M 1744.956793 748.011135 C 1499.567263 748.011135 1038.363412 770.492529 1051.280508 806.667456 C 1052.65692 810.549643 1501.720113 859.218155 1753.568191 854.983041 C 2005.416269 850.747928 2448.620888 814.996512 2448.620888 806.738041 C 2448.620888 764.669248 2016.10993 748.011135 1744.956793 748.011135 Z M 1744.956793 748.011135 " stroke="#55320f" stroke-width="10" stroke-opacity="1" stroke-miterlimit="4"/><path stroke-linecap="butt" transform="matrix(0.110682, 0, 0, 0.110682, -6.314656, -6.31466)" fill="none" stroke-linejoin="miter" d="M 1055.480329 812.349566 L 1056.04501 807.373308 L 1049.868803 806.702748 L 1050.50407 812.878955 L 1247.119211 2668.776241 C 1248.213282 2679.399318 1255.907071 2688.187178 1266.424269 2690.445905 C 1325.574687 2703.186538 1561.646967 2751.85505 1723.887104 2753.902021 C 1898.126729 2756.125456 2154.809895 2703.645342 2216.642551 2690.410613 C 2227.089164 2688.187178 2234.818246 2679.540488 2236.053487 2668.987997 L 2450.385519 812.914248 L 2451.126664 806.702748 L 2444.915164 807.373308 L 2445.444553 812.349566 C 2444.915164 807.373308 2444.915164 807.373308 2444.915164 807.373308 L 2444.809286 807.373308 L 2444.59753 807.408601 L 2443.64463 807.514478 C 2442.797607 807.585064 2441.562366 807.726234 2439.903613 807.902697 C 2436.6214 808.220331 2431.786312 808.74972 2425.504227 809.384987 C 2412.940058 810.655521 2394.693777 812.490737 2371.89475 814.678879 C 2326.331988 819.055162 2262.628824 824.878443 2190.137799 830.666432 C 2045.085164 842.242408 1864.881088 853.606629 1723.992982 852.900777 C 1593.410318 852.230218 1426.440972 840.865997 1292.046706 829.642946 C 1224.884865 824.031421 1165.875618 818.455188 1123.665655 814.29066 C 1102.52538 812.208396 1085.620219 810.479058 1074.00895 809.279109 C 1068.185669 808.643842 1063.703507 808.185038 1060.668342 807.867405 C 1059.15076 807.690941 1057.986104 807.585064 1057.209667 807.479186 L 1056.327351 807.408601 L 1056.115596 807.373308 L 1056.04501 807.373308 C 1056.04501 807.373308 1056.04501 807.373308 1055.480329 812.349566 Z M 1055.480329 812.349566 " stroke="#55320f" stroke-width="10" stroke-opacity="1" stroke-miterlimit="4"/><path stroke-linecap="butt" transform="matrix(0.110682, 0, 0, 0.110682, -6.314656, -6.31466)" fill-opacity="1" fill="#eee2d8" fill-rule="nonzero" stroke-linejoin="miter" d="M 1750.285978 2548.287265 C 1546.788778 2547.54612 1231.484584 2495.313054 1231.484584 2495.313054 L 1249.519108 2670.258531 C 1250.401424 2678.834636 1256.648216 2685.857866 1265.08315 2687.657789 C 1328.04517 2700.963103 1588.328182 2753.584388 1759.426764 2752.102098 C 1922.655094 2750.655101 2159.468519 2699.551399 2218.160133 2686.31667 C 2226.383311 2684.481454 2232.383055 2677.66998 2233.371249 2669.340923 L 2253.205696 2502.724503 C 2253.205696 2502.724503 1945.595292 2548.993117 1750.285978 2548.287265 Z M 1750.285978 2548.287265 " stroke="#55320f" stroke-width="10" stroke-opacity="1" stroke-miterlimit="4"/><path stroke-linecap="round" transform="matrix(0.110682, 0, 0, 0.110682, -6.314656, -6.31466)" fill="none" stroke-linejoin="miter" d="M 1842.364402 1294.093718 L 1791.93126 2495.313054 " stroke="#8a521b" stroke-width="20" stroke-opacity="1" stroke-miterlimit="4"/><path stroke-linecap="round" transform="matrix(0.110682, 0, 0, 0.110682, -6.314656, -6.31466)" fill="none" stroke-linejoin="miter" d="M 1586.351796 1287.035195 L 1586.351796 2483.666492 " stroke="#8a521b" stroke-width="20" stroke-opacity="1" stroke-miterlimit="4"/><path stroke-linecap="round" transform="matrix(0.110682, 0, 0, 0.110682, -6.314656, -6.31466)" fill="none" stroke-linejoin="miter" d="M 1375.584318 1277.859116 L 1415.253214 2476.60797 " stroke="#8a521b" stroke-width="20" stroke-opacity="1" stroke-miterlimit="4"/><path stroke-linecap="round" transform="matrix(0.110682, 0, 0, 0.110682, -6.314656, -6.31466)" fill="none" stroke-linejoin="miter" d="M 1211.967769 1264.059705 L 1290.987927 2468.137743 " stroke="#8a521b" stroke-width="20" stroke-opacity="1" stroke-miterlimit="4"/><path stroke-linecap="round" transform="matrix(0.110682, 0, 0, 0.110682, -6.314656, -6.31466)" fill="none" stroke-linejoin="miter" d="M 2077.201441 1294.093718 L 1997.510724 2481.19601 " stroke="#8a521b" stroke-width="20" stroke-opacity="1" stroke-miterlimit="4"/><path stroke-linecap="round" transform="matrix(0.110682, 0, 0, 0.110682, -6.314656, -6.31466)" fill="none" stroke-linejoin="miter" d="M 2252.85277 1264.765557 L 2152.339412 2463.867337 " stroke="#8a521b" stroke-width="20" stroke-opacity="1" stroke-miterlimit="4"/><path stroke-linecap="butt" transform="matrix(1.402171, 0, 0, 1.402171, -1.532754, 100.411289)" fill="none" stroke-linejoin="miter" d="M 49.617204 104.402008 C 43.800333 104.402008 38.724499 103.649826 34.39249 102.151035 C 30.060481 100.649457 26.692378 98.284264 24.290969 95.055454 C 21.870058 91.826645 20.660996 87.700789 20.660996 82.677887 C 20.660996 78.301304 21.273885 73.885719 22.499662 69.431132 C 23.722654 64.976545 25.583607 60.742041 28.079736 56.733191 C 30.589794 52.721555 33.743385 49.13337 37.537724 45.963064 C 41.334848 42.795543 45.803365 40.299414 50.948845 38.477463 C 56.091538 36.655512 61.891695 35.747322 68.3521 35.747322 C 72.425024 35.747322 76.152502 36.014765 79.534534 36.549649 C 82.919351 37.084534 85.674565 37.697423 87.800175 38.38553 L 77.743227 69.247265 C 75.982565 68.052132 73.503151 67.065939 70.304986 66.285898 C 67.12075 65.489143 63.738719 65.090765 60.156105 65.090765 C 55.272496 65.090765 51.246931 65.519787 48.076625 66.377832 C 44.909104 67.219161 43.323951 68.673379 43.323951 70.740485 C 43.323951 72.498362 44.76424 73.66285 47.642031 74.22838 C 50.533752 74.779979 54.269587 75.055779 58.846752 75.055779 C 62.613232 75.055779 66.499504 74.587755 70.51114 73.654493 C 74.522775 72.72123 77.874163 71.559528 80.568087 70.163813 L 72.39438 101.485215 C 69.499873 102.309829 65.95069 103.000721 61.741259 103.552321 C 57.545756 104.117851 53.503476 104.402008 49.617204 104.402008 Z M 97.026937 103.000721 L 76.798821 103.000721 L 94.480662 37.170896 L 116.775884 37.170896 L 103.228257 73.930293 L 104.445677 73.930293 C 105.699313 70.425683 107.298395 67.219161 109.242924 64.310725 C 111.187453 61.385574 113.460713 59.037096 116.062705 57.259718 C 118.664696 55.471197 121.536916 54.574151 124.673792 54.574151 C 128.378983 54.574151 131.056193 55.409908 132.710992 57.075852 C 134.379721 58.730651 135.212693 60.995554 135.212693 63.873345 C 135.212693 65.191056 135.067828 66.68149 134.775313 68.350219 C 134.502299 70.005019 134.109493 71.832542 133.605253 73.838359 L 125.707345 103.000721 L 104.26181 103.000721 L 110.666498 85.778547 C 111.09552 84.783996 111.48554 83.789444 111.839344 82.794893 C 112.190362 81.783627 112.365871 80.903295 112.365871 80.1539 C 112.365871 77.888997 111.112235 76.755153 108.599391 76.755153 C 107.083884 76.755153 105.729957 77.245464 104.53761 78.2233 C 103.356406 79.189993 102.386928 80.412984 101.620817 81.897847 C 100.871421 83.36878 100.342108 84.914931 100.035663 86.5363 Z M 160.123836 89.36116 L 154.864136 103.000721 L 126.462313 103.000721 L 165.10495 37.170896 L 191.166652 37.170896 L 194.451178 103.000721 L 166.252723 103.000721 L 168.31983 89.36116 Z M 171.880157 63.023658 L 170.47887 63.023658 L 163.129776 82.31294 L 168.87143 82.31294 Z M 222.76664 53.632531 C 218.938871 53.632531 216.27559 52.738271 214.776799 50.946964 C 213.275221 49.155657 212.871272 46.913041 213.559379 44.219117 C 214.308775 41.463903 215.902285 39.229645 218.334339 37.513556 C 220.783109 35.783538 223.922771 34.919922 227.75054 34.919922 C 231.636812 34.919922 234.316807 35.783538 235.784954 37.513556 C 237.269817 39.229645 237.659837 41.463903 236.957801 44.219117 C 236.205619 46.913041 234.623251 49.155657 232.202341 50.946964 C 229.800931 52.738271 226.655697 53.632531 222.76664 53.632531 Z M 221.067266 103.000721 L 202.170791 103.000721 L 208.943212 77.604839 L 200.861438 77.604839 L 206.692239 55.975438 L 233.673274 55.975438 Z M 237.258673 104.034275 C 234.428241 104.034275 232.246915 103.145586 230.714693 101.370995 C 229.185257 99.579688 228.795236 97.328714 229.544632 94.618075 C 230.294028 91.801572 231.909826 89.52274 234.389239 87.776007 C 236.854724 86.015345 239.501289 85.135014 242.334507 85.135014 C 245.212298 85.135014 247.401982 86.015345 248.900774 87.776007 C 250.416281 89.52274 250.797943 91.770928 250.048547 94.526141 C 249.285222 97.29807 247.661067 99.579688 245.181653 101.370995 C 242.716169 103.145586 240.075176 104.034275 237.258673 104.034275 Z M 237.258673 104.034275 " stroke="#ffffff" stroke-width="10.698324" stroke-opacity="1" stroke-miterlimit="4"/><g fill="#000000" fill-opacity="1"><g transform="translate(33.105257, 244.834926)"><g><path d="M 34.953125 1.984375 C 26.773438 1.984375 19.648438 0.925781 13.578125 -1.1875 C 7.515625 -3.300781 2.789062 -6.617188 -0.59375 -11.140625 C -3.976562 -15.671875 -5.671875 -21.453125 -5.671875 -28.484375 C -5.671875 -34.640625 -4.8125 -40.835938 -3.09375 -47.078125 C -1.382812 -53.316406 1.222656 -59.25 4.734375 -64.875 C 8.253906 -70.507812 12.675781 -75.546875 18 -79.984375 C 23.320312 -84.421875 29.585938 -87.914062 36.796875 -90.46875 C 44.003906 -93.019531 52.132812 -94.296875 61.1875 -94.296875 C 66.90625 -94.296875 72.132812 -93.921875 76.875 -93.171875 C 81.625 -92.421875 85.492188 -91.5625 88.484375 -90.59375 L 74.375 -47.34375 C 71.914062 -49.007812 68.441406 -50.390625 63.953125 -51.484375 C 59.472656 -52.585938 54.726562 -53.140625 49.71875 -53.140625 C 42.863281 -53.140625 37.210938 -52.546875 32.765625 -51.359375 C 28.328125 -50.171875 26.109375 -48.128906 26.109375 -45.234375 C 26.109375 -42.773438 28.128906 -41.148438 32.171875 -40.359375 C 36.222656 -39.566406 41.457031 -39.171875 47.875 -39.171875 C 53.144531 -39.171875 58.59375 -39.828125 64.21875 -41.140625 C 69.84375 -42.460938 74.546875 -44.09375 78.328125 -46.03125 L 66.859375 -2.109375 C 62.816406 -0.960938 57.847656 0.00390625 51.953125 0.796875 C 46.066406 1.585938 40.398438 1.984375 34.953125 1.984375 Z M 34.953125 1.984375 "/></g></g></g><g fill="#000000" fill-opacity="1"><g transform="translate(120.930534, 244.834926)"><g><path d="M 13.578125 0 L -14.765625 0 L 10.015625 -92.3125 L 41.28125 -92.3125 L 22.28125 -40.75 L 24 -40.75 C 25.757812 -45.675781 28 -50.179688 30.71875 -54.265625 C 33.445312 -58.359375 36.632812 -61.65625 40.28125 -64.15625 C 43.9375 -66.664062 47.960938 -67.921875 52.359375 -67.921875 C 57.546875 -67.921875 61.300781 -66.753906 63.625 -64.421875 C 65.957031 -62.085938 67.125 -58.898438 67.125 -54.859375 C 67.125 -53.015625 66.925781 -50.925781 66.53125 -48.59375 C 66.132812 -46.257812 65.582031 -43.6875 64.875 -40.875 L 53.8125 0 L 23.734375 0 L 32.703125 -24.140625 C 33.316406 -25.546875 33.863281 -26.953125 34.34375 -28.359375 C 34.832031 -29.765625 35.078125 -30.992188 35.078125 -32.046875 C 35.078125 -35.210938 33.316406 -36.796875 29.796875 -36.796875 C 27.691406 -36.796875 25.800781 -36.113281 24.125 -34.75 C 22.457031 -33.382812 21.097656 -31.664062 20.046875 -29.59375 C 18.992188 -27.53125 18.242188 -25.359375 17.796875 -23.078125 Z M 13.578125 0 "/></g></g></g><g fill="#000000" fill-opacity="1"><g transform="translate(195.041358, 244.834926)"><g><path d="M 27.953125 -19.125 L 20.578125 0 L -19.25 0 L 34.953125 -92.3125 L 71.46875 -92.3125 L 76.09375 0 L 36.53125 0 L 39.4375 -19.125 Z M 44.4375 -56.046875 L 42.46875 -56.046875 L 32.171875 -29.015625 L 40.21875 -29.015625 Z M 44.4375 -56.046875 "/></g></g></g><g fill="#000000" fill-opacity="1"><g transform="translate(287.482088, 244.834926)"><g><path d="M 23.34375 -69.234375 C 17.976562 -69.234375 14.238281 -70.484375 12.125 -72.984375 C 10.019531 -75.492188 9.453125 -78.640625 10.421875 -82.421875 C 11.472656 -86.285156 13.710938 -89.425781 17.140625 -91.84375 C 20.566406 -94.269531 24.960938 -95.484375 30.328125 -95.484375 C 35.773438 -95.484375 39.53125 -94.269531 41.59375 -91.84375 C 43.664062 -89.425781 44.21875 -86.285156 43.25 -82.421875 C 42.195312 -78.640625 39.976562 -75.492188 36.59375 -72.984375 C 33.207031 -70.484375 28.789062 -69.234375 23.34375 -69.234375 Z M 20.96875 0 L -5.53125 0 L 3.953125 -35.609375 L -7.390625 -35.609375 L 0.796875 -65.9375 L 38.640625 -65.9375 Z M 20.96875 0 "/></g></g></g><g fill="#000000" fill-opacity="1"><g transform="translate(329.021069, 244.834926)"><g><path d="M 2.109375 1.453125 C -1.847656 1.453125 -4.898438 0.203125 -7.046875 -2.296875 C -9.203125 -4.804688 -9.753906 -7.953125 -8.703125 -11.734375 C -7.648438 -15.691406 -5.382812 -18.898438 -1.90625 -21.359375 C 1.5625 -23.828125 5.273438 -25.0625 9.234375 -25.0625 C 13.273438 -25.0625 16.347656 -23.828125 18.453125 -21.359375 C 20.566406 -18.898438 21.097656 -15.738281 20.046875 -11.875 C 18.992188 -8 16.726562 -4.804688 13.25 -2.296875 C 9.78125 0.203125 6.066406 1.453125 2.109375 1.453125 Z M 2.109375 1.453125 "/></g></g></g></svg>